<svg id="Vrstva_1" data-name="Vrstva 1" xmlns="http://www.w3.org/2000/svg" viewBox="0 0 320 333"><path d="M669.94,510v-3c2.12-3.51,3.73-7.53,6.51-10.41,3.06-3.17,4.23-6.74,3.29-10.42A67,67,0,0,0,674,471.54c-2.14-4-1.81-12.65.43-16,3.44-5.15,6.79-10.62,8.71-16.43,1-3-1.19-7-2-10.58-1-4.45-3.78-9.35-2.73-13.22,1.39-5.1,5.12-10,9-13.88,5.34-5.29,8.37-10.8,7.84-18.48-.59-8.58,3.45-15.64,9.13-21.6,9.18-9.66,20.63-14.95,33.89-16.37,8.58-.91,17.15-1.95,25.73-2.93h11c2,.91,3.92,2.42,6,2.61,7.46.7,15,.95,22.43,1.4,16.11,1,32.27,1.53,48.32,3.11,8.36.82,16.55,3.41,24.8,5.26,9.72,2.17,19.42,4.4,29.13,6.62,2.87.65,3.81,2.37,3.8,5.37q-.15,62,0,123.92c0,3.3-1.22,4.34-4.17,5.44-6,2.23-12.82,4.06-17.27,8.23-6.32,5.93-11.19,13.57-16,21-3.62,5.62-6.21,11.92-9.07,18-3.51,7.46-6.52,15.18-10.32,22.48a105.63,105.63,0,0,1-10.72,17c-3.26,4.11-7.64,7.4-11.79,10.74-12,9.68-18,22.93-21.17,37.38-2.44,11-3.34,22.37-5.08,33.55-.67,4.28-1.59,8.58-5.92,10.95h-10c-13.84-4.1-23.84-13.83-26.66-26.94-3.12-14.48-4.82-29.94,2.44-44.64,6.16-12.48,10.94-25.64,16.73-38.32,3-6.7,2.64-13.46,2.42-20.91-2.34,0-4.3,0-6.26,0-21.45-.41-42.93-.37-64.36-1.35-22.81-1-32.84-9.28-40.31-31.08C671.69,511.06,670.62,510.61,669.94,510Z" transform="translate(-669.94 -342.03)"/><path d="M989.94,456c-.64,10.79-1.2,21.59-1.93,32.37-.54,8-4.7,12.93-12.78,13.25-13.64.54-27.32.5-41,.1-7.24-.21-13.38-7.6-13.37-14.73,0-33-.06-66,.19-99a241.91,241.91,0,0,1,1.84-26.89c.84-7,3.74-10.27,10.63-10.45,15.11-.4,30.26-.06,45.37.55,5.26.21,9.16,6.7,9.83,14.41.48,5.46.8,10.92,1.19,16.38Z" transform="translate(-669.94 -342.03)"/></svg>