<?xml version="1.0" encoding="utf-8"?>
<!-- Generator: Adobe Illustrator 24.3.0, SVG Export Plug-In . SVG Version: 6.00 Build 0)  -->
<svg version="1.1" id="Vrstva_1" xmlns="http://www.w3.org/2000/svg" xmlns:xlink="http://www.w3.org/1999/xlink" x="0px" y="0px"
	 viewBox="0 0 408 408" style="enable-background:new 0 0 408 408;" xml:space="preserve">
<style type="text/css">
	.st0{fill:#961F2A;}
	.st1{fill:#1D1D1B;}
</style>
<g id="Vrstva_1-2">
	<path class="st0" d="M0.2,216v-23.9c0.3-2.9,0.7-5.7,1-8.6C5.7,143.9,19.9,108.2,45,77.2c32.2-39.8,73.6-64.6,124.2-73.6
		c7.5-1.4,15.1-2.1,22.7-3.1h23.9c1.3,0.2,2.6,0.5,3.9,0.7c8.6,1.2,17.4,1.9,25.9,3.7c48.9,10.6,89,35.6,119.4,75.3
		c37.6,49.2,50.3,104.7,38.1,165.3c-9,45-31.6,82.6-66.4,112.5c-44,37.8-95.3,54-153.1,48.7c-39.3-3.7-74.7-18.1-105.6-42.9
		c-40.4-32.3-65.5-74-74.7-125C2,231.2,1.2,223.6,0.2,216z M203.3,350.8c5.5-0.4,10.4-0.5,15.3-1.1c42.4-4.6,76.2-24.6,102.8-57.6
		c5-6.2,5.1-12,2.1-18.6c-0.7-1.4-1.4-2.9-2.2-4.2c-5.9-10-14.8-16.9-24.7-22.4c-27.3-15.3-57-22.7-88-24.3
		c-21.9-1.1-43.2,3.5-64,10c-17.4,5.4-34.1,12.5-48,24.7C89,264,83,271.9,82.1,282.5c-0.1,1.8,0.3,3.6,1.3,5.1
		C113.2,328.3,153.4,349.3,203.3,350.8z M203.5,183.6c34.4,0.3,60.9-25.9,61.4-60.5c0.5-34.2-26-61.1-60.4-61.5
		c-34.8-0.4-61.7,26.1-61.8,60.9C142.6,156.9,168.9,183.3,203.5,183.6L203.5,183.6z"/>
	<path class="st1" d="M203.3,350.8c-49.9-1.5-90.1-22.6-120-63.2c-1-1.5-1.4-3.3-1.3-5.1c0.9-10.6,6.9-18.5,14.5-25.2
		c13.9-12.3,30.6-19.3,48-24.7c20.8-6.5,42.1-11.1,64-10c31.1,1.6,60.7,9,88,24.3c9.9,5.5,18.8,12.4,24.7,22.5
		c0.8,1.4,1.5,2.8,2.2,4.2c3,6.6,3,12.3-2.1,18.6c-26.6,33-60.4,53-102.8,57.6C213.7,350.3,208.8,350.4,203.3,350.8z"/>
	<path class="st1" d="M203.5,183.6c-34.6-0.3-60.9-26.8-60.8-61.1c0.1-34.8,27-61.3,61.8-60.9C239,62,265.5,88.9,265,123.1
		C264.5,157.7,237.9,183.9,203.5,183.6z"/>
</g>
</svg>
