<svg id="Vrstva_1" data-name="Vrstva 1" xmlns="http://www.w3.org/2000/svg" viewBox="0 0 539.87 565.72"><defs><style>.cls-1{fill:#078537;}</style></defs><path class="cls-1" d="M1036.1,799.74H998.6a20.33,20.33,0,0,0-2.32-.36c-10.51-.38-21-.69-31.54-1.12-10.67-.43-21.35-.79-32-1.53-12-.84-24-1.86-35.91-3.17-9.57-1-19.12-2.49-28.62-4.08-7.48-1.24-14.85-3.06-22.3-4.46-23-4.33-46-8.57-69-12.86-1.29-.24-2.55-.59-3.73-.87-.48-6.22-1-229.95-.52-231.47a7.06,7.06,0,0,1,.92,0,34.71,34.71,0,0,0,15.67-1.67c7.75-2.54,14.19-7.18,20-12.79,6.31-6.08,11.24-13.26,16.14-20.44,10.06-14.74,18.17-30.56,25.53-46.77,7.67-16.91,15.18-33.9,22.82-50.82a30.92,30.92,0,0,1,3.27-5.47c4.77-6.58,10.68-12.07,16.77-17.38,5.25-4.56,10.6-9,15.81-13.64,10-8.86,17.87-19.09,22.79-31.83a233.78,233.78,0,0,0,13.47-55.34c1-8.08,1.86-16.18,2.7-24.27.65-6.29,1.15-12.59,1.81-18.88a3.89,3.89,0,0,1,1.17-2.43,18,18,0,0,1,9.5-3.92,48.51,48.51,0,0,1,19.62,2.59c19.44,6.64,32.66,19.89,40.64,38.6,2.4,5.63,3.43,11.62,4.49,17.63a116.17,116.17,0,0,1,.63,36.13,154.17,154.17,0,0,1-14.31,46.23c-5.09,10.53-10.51,20.9-15.66,31.39a137.67,137.67,0,0,0-9.55,24,56.51,56.51,0,0,0-1.73,24.63,2.52,2.52,0,0,0,2.32,2.43,81.72,81.72,0,0,0,20.52,1.48c9.09-.35,18.18-.85,27.27-1.11,3.78-.1,7.58.34,11.37.39,14.24.19,28.48.25,42.72.49a262.16,262.16,0,0,1,40.1,3.79,38.32,38.32,0,0,1,17,7.22,70.82,70.82,0,0,1,11.41,10.68,90,90,0,0,1,17.31,32.39c.29.95.59,1.91.89,2.87v4.27c-1.5,6.7-5.23,12.28-8.9,17.9-.74,1.12-1.52,2.22-2.18,3.39-1.63,2.88-3.32,5.75-4.77,8.72a19,19,0,0,0-1.92,9.19c.19,4.76,2.38,8.61,5.45,12.06,1.31,1.48,2.74,2.85,4,4.36,4.84,5.73,7.37,12.29,6.83,19.87a33.35,33.35,0,0,1-4.29,13.69,57.8,57.8,0,0,1-11.92,14.64,17.76,17.76,0,0,0-5.27,16,49,49,0,0,0,2,7.78c1.39,3.86,3.18,7.58,4.65,11.41a106.18,106.18,0,0,1,3.72,10.72,20.53,20.53,0,0,1-4,19c-1,1.24-1.91,2.53-3,3.68-3.73,4-7.5,7.93-11.26,11.88-4,4.19-7.82,8.49-10.6,13.62a26.6,26.6,0,0,0-3,18.55,29.48,29.48,0,0,1-1,15.42c-2,6.14-5.64,11.28-10,15.94-7.28,7.8-16,13.84-24.64,20a11.61,11.61,0,0,1-1.68.87,102.79,102.79,0,0,1-29.47,8.54,250.46,250.46,0,0,1-25.52,2C1038.28,799.45,1037.19,799.62,1036.1,799.74Z" transform="translate(-636.26 -234.03)"/><path class="cls-1" d="M749.55,657.94q0,53,0,106a23.84,23.84,0,0,1-1.58,9.75c-3.58,8.15-9.76,12.81-18.65,13.77a26.86,26.86,0,0,1-2.84.12q-33.59,0-67.16,0a22.48,22.48,0,0,1-14.4-4.58,21.45,21.45,0,0,1-8.63-16.46c0-.86,0-1.74,0-2.61q0-106.28,0-212.56a28.15,28.15,0,0,1,.92-7.72c2.79-9.61,11.3-15.81,21.5-15.83,18.35,0,36.7,0,55.06,0,4.58,0,9.17,0,13.76,0a22.08,22.08,0,0,1,21.59,17.87,31.29,31.29,0,0,1,.41,6.13Q749.57,604.92,749.55,657.94Z" transform="translate(-636.26 -234.03)"/></svg>