<svg id="Vrstva_1" data-name="Vrstva 1" xmlns="http://www.w3.org/2000/svg" viewBox="0 0 384 383.32"><g id="Vrstva_2" data-name="Vrstva 2"><g id="Vrstva_1-2" data-name="Vrstva 1-2"><path d="M384,355.9v7.44c-2.47,4.52-4.12,9.83-7.56,13.42-9.41,9.79-24.07,9-34.39-1.3q-35-34.86-70-69.85a24.41,24.41,0,0,1-2.52-3.62c-1.76,1.16-2.59,1.69-3.41,2.24-55.29,37.23-113.63,42.65-173.45,13.31-49.45-24.2-79-65.07-89.75-119.13C1.61,191.84,1,185.13,0,178.49v-21c.57-4.55,1-9.13,1.73-13.66C7.4,107.24,23.17,75.62,49.43,49.4a163.71,163.71,0,0,1,88.5-46.19C144.42,2,151,1.34,157.5.34h21.75c.82.25,1.64.45,2.48.62,7,1,14.14,1.66,21.08,3.09C313.48,26.94,370.29,152.27,314.46,250.34c-3.56,6.25-7.61,12.22-11.82,19a29.55,29.55,0,0,1,3.14,2.43c22.19,22.11,44.3,44.29,66.56,66.33C377.56,343.22,382.25,348.55,384,355.9ZM49.14,168.82C49.34,234.94,103,288.34,169,288s119.36-53.65,119.23-119.44A119.39,119.39,0,0,0,168.76,49.34C102.75,49.27,49,103,49.14,168.82Z" transform="translate(0 -0.34)"/></g></g></svg>